<svg xmlns="http://www.w3.org/2000/svg" viewBox="0 0 64 64"><rect width="64" height="64" rx="14" fill="#f3f3f3"/><g transform="translate(8 8) scale(2)" fill="none" stroke="#222222" stroke-width="1.7" stroke-linecap="round" stroke-linejoin="round"><path d="M11 17h3v2a1 1 0 0 0 1 1h2a1 1 0 0 0 1-1v-3a3.16 3.16 0 0 0 2-2h1a1 1 0 0 0 1-1v-2a1 1 0 0 0-1-1h-1a5 5 0 0 0-2-4V3a4 4 0 0 0-3.2 1.6l-.3.4H11a6 6 0 0 0-6 6v1a5 5 0 0 0 2 4v3a1 1 0 0 0 1 1h2a1 1 0 0 0 1-1z"></path><path d="M16 10h.01"></path><path d="M2 8v1a2 2 0 0 0 2 2h1"></path><g transform="translate(7.5 7) scale(.375)" stroke-width="2.8"><line x1="12" x2="12" y1="2" y2="22"></line><path d="M17 5H9.5a3.5 3.5 0 0 0 0 7h5a3.5 3.5 0 0 1 0 7H6"></path></g></g></svg>